<svg xmlns="http://www.w3.org/2000/svg" viewBox="0 0 666.69 368.54"><defs><style>.cls-1{fill:#fff;}</style></defs><title>Asset 1Inspector - </title><g id="Layer_2" data-name="Layer 2"><g id="Layer_1-2" data-name="Layer 1"><path class="cls-1" d="M116.64,109.54H53.7L42.82,172H0L30.05,1.66H148.81l-6.62,36.9H66L60.09,72.63H123Z"/><path class="cls-1" d="M203.7,172l1.42-37.15H165.61L154,172H108.83L169.63,1.66H247.7l1,170.34ZM194,43.06l-18.69,60.09h31l2.6-60.09Z"/><path class="cls-1" d="M312.76,175.31q-33.6,0-46.37-15.62-8.76-10.87-8.75-29.81a107.89,107.89,0,0,1,1.89-19.16l8.28-47.32Q278.93,0,345.41,0q27.45,0,41.64,11.71t14.19,32.06A66,66,0,0,1,399,60.57a70.65,70.65,0,0,1-4.38,12.77l-2.37,4.26H350.38A32.67,32.67,0,0,0,356.53,58q0-21.28-17.74-21.29-23.91,0-28.63,27.68l-8,45.42a67.83,67.83,0,0,0-1.19,12.54q0,16.33,19.28,16.33t24.73-19.4h-19.4L330.27,93H393l-3.78,20.34L388,120.18Q378.06,175.32,312.76,175.31Z"/><path class="cls-1" d="M471.51,172l1.42-37.15H433.42L421.82,172H376.64L437.44,1.66h78.07l1,170.34Zm-9.7-128.94-18.69,60.09h31l2.6-60.09Z"/><path class="cls-1" d="M619.84,1.66q27,0,38.33,11.83,8.52,9,8.52,22.71a55.57,55.57,0,0,1-1,9.93l-3.31,18.46Q659.6,80,652.61,89.43t-15.5,13.48L658.64,172H610.85L591,108.35H576.31L566.61,172H521.19l30-170.34Zm-14.9,36.9H587.19L581,79.73H597.6q12.54,0,18-6t5.45-16Q621,38.56,604.94,38.56Z"/><path class="cls-1" d="M186.1,251.8c-.45,21.94,15.38,28.66,34.79,28.66,11.19,0,28.21-6.12,28.21-21.65,0-12.09-12.09-16.87-21.94-19.26l-23.74-5.82c-12.54-3.13-24-9.1-24-25.68,0-10.45,6.72-30,36.73-30,21,0,39.56,11.34,39.41,33.14H245.37c-.6-16.27-14-24.48-29.11-24.48-13.89,0-26.72,5.37-26.72,21.19,0,10,7.46,14.19,16.12,16.28l26,6.42c15.07,4,27.61,10.6,27.61,28.06,0,7.32-3,30.46-40.75,30.46-25.23,0-43.74-11.35-42.55-37.32Z"/><path class="cls-1" d="M286.28,180.29h14.93l36.87,93.45,36.73-93.45h14.93V286.88H379.58V194.77h-.29l-36.43,92.11H333.3l-36.57-92.11h-.3v92.11H286.28Z"/><path class="cls-1" d="M426.91,251.8c-.45,21.94,15.38,28.66,34.79,28.66,11.19,0,28.21-6.12,28.21-21.65,0-12.09-12.09-16.87-21.94-19.26l-23.74-5.82c-12.54-3.13-24-9.1-24-25.68,0-10.45,6.72-30,36.73-30,21.05,0,39.56,11.34,39.41,33.14H486.18c-.6-16.27-14-24.48-29.11-24.48-13.89,0-26.73,5.37-26.73,21.19,0,10,7.47,14.19,16.13,16.28l26,6.42c15.08,4,27.62,10.6,27.62,28.06,0,7.32-3,30.46-40.75,30.46-25.23,0-43.75-11.35-42.55-37.32Z"/><path class="cls-1" d="M82.05,343.69h10.8c4.37,0,7.23,2.56,7.23,7s-2.86,7-7.23,7H84.37V368H82.05Zm2.32,11.93h8c3.21,0,5.42-1.63,5.42-5s-2.21-5-5.42-5h-8Z"/><path class="cls-1" d="M116.27,343.18c7.64,0,11.46,6,11.46,12.68s-3.82,12.68-11.46,12.68-11.48-6-11.48-12.68S108.6,343.18,116.27,343.18Zm0,23.39c6.41,0,9.14-5.39,9.14-10.71s-2.73-10.7-9.14-10.7-9.17,5.38-9.17,10.7S109.83,366.57,116.27,366.57Z"/><path class="cls-1" d="M133.9,343.69h11.15c4,0,7.39,1.95,7.39,6.34,0,3.07-1.6,5.59-4.73,6.21v.07c3.17.4,4.09,2.59,4.26,5.48.1,1.67.1,5,1.12,6.24h-2.56c-.57-.95-.57-2.76-.64-3.78-.21-3.41-.48-7.19-4.88-7h-8.79V368H133.9Zm2.32,11.56h8.66c2.83,0,5.25-1.77,5.25-4.74s-1.78-4.84-5.25-4.84h-8.66Z"/><path class="cls-1" d="M178.35,343.69h2.59L190.49,368H188l-3-7.57H174L171,368h-2.49Zm-3.68,14.8h9.58L179.55,346Z"/><path class="cls-1" d="M195.26,343.69h16.81v2H197.58v8.8h13.57v2H197.58v9.62h14.66v2h-17Z"/><path class="cls-1" d="M218,343.69h11.14c4,0,7.4,1.95,7.4,6.34,0,3.07-1.6,5.59-4.74,6.21v.07c3.17.4,4.09,2.59,4.26,5.48.11,1.67.11,5,1.13,6.24h-2.56c-.58-.95-.58-2.76-.65-3.78-.2-3.41-.47-7.19-4.87-7h-8.8V368H218Zm2.31,11.56H229c2.83,0,5.25-1.77,5.25-4.74s-1.77-4.84-5.25-4.84h-8.66Z"/><path class="cls-1" d="M243.33,343.69h16.81v2H245.65v8.8h13.57v2H245.65v9.62h14.66v2h-17Z"/><path class="cls-1" d="M276.3,343.18c7.63,0,11.45,6,11.45,12.68s-3.82,12.68-11.45,12.68-11.49-6-11.49-12.68S268.63,343.18,276.3,343.18Zm0,23.39c6.41,0,9.13-5.39,9.13-10.71s-2.72-10.7-9.13-10.7-9.17,5.38-9.17,10.7S269.85,366.57,276.3,366.57Z"/><path class="cls-1" d="M295,360c-.1,5,3.51,6.55,7.95,6.55,2.55,0,6.44-1.4,6.44-4.95,0-2.76-2.76-3.85-5-4.39L299,355.9c-2.87-.72-5.49-2.08-5.49-5.87,0-2.38,1.53-6.85,8.39-6.85,4.8,0,9,2.59,9,7.57h-2.31c-.14-3.72-3.21-5.59-6.65-5.59-3.17,0-6.1,1.23-6.1,4.84,0,2.28,1.7,3.24,3.68,3.72l5.93,1.46c3.44.92,6.31,2.42,6.31,6.41,0,1.67-.68,7-9.31,7-5.76,0-10-2.59-9.71-8.52Z"/><path class="cls-1" d="M318,343.69h16.8v2H320.28v8.8h13.56v2H320.28v9.62h14.65v2H318Z"/><path class="cls-1" d="M340.73,343.69h11.15c4,0,7.39,1.95,7.39,6.34,0,3.07-1.6,5.59-4.73,6.21v.07c3.17.4,4.09,2.59,4.26,5.48.1,1.67.1,5,1.12,6.24h-2.55c-.58-.95-.58-2.76-.65-3.78-.21-3.41-.48-7.19-4.88-7h-8.79V368h-2.32Zm2.32,11.56h8.66c2.83,0,5.25-1.77,5.25-4.74s-1.78-4.84-5.25-4.84h-8.66Z"/><path class="cls-1" d="M363.54,343.69H366l7.9,21.79H374l7.84-21.79h2.46l-9,24.34h-2.69Z"/><path class="cls-1" d="M389.17,343.69h2.32V368h-2.32Z"/><path class="cls-1" d="M416.92,351.06a7.38,7.38,0,0,0-7.46-5.9c-6.45,0-9.17,5.38-9.17,10.7s2.72,10.71,9.17,10.71c4.5,0,7.36-3.48,7.8-7.81h2.32c-.65,6-4.43,9.78-10.12,9.78-7.67,0-11.49-6-11.49-12.68s3.82-12.68,11.49-12.68c4.6,0,9.17,2.76,9.78,7.88Z"/><path class="cls-1" d="M425.86,343.69h2.31V368h-2.31Z"/><path class="cls-1" d="M446,343.18c7.64,0,11.46,6,11.46,12.68s-3.82,12.68-11.46,12.68-11.49-6-11.49-12.68S438.33,343.18,446,343.18Zm0,23.39c6.41,0,9.14-5.39,9.14-10.71s-2.73-10.7-9.14-10.7-9.17,5.38-9.17,10.7S439.56,366.57,446,366.57Z"/><path class="cls-1" d="M464.72,360c-.1,5,3.51,6.55,7.94,6.55,2.56,0,6.44-1.4,6.44-4.95,0-2.76-2.76-3.85-5-4.39l-5.42-1.33c-2.86-.72-5.49-2.08-5.49-5.87,0-2.38,1.54-6.85,8.39-6.85,4.81,0,9,2.59,9,7.57h-2.32c-.14-3.72-3.2-5.59-6.65-5.59-3.17,0-6.1,1.23-6.1,4.84,0,2.28,1.71,3.24,3.68,3.72l5.94,1.46c3.44.92,6.3,2.42,6.3,6.41,0,1.67-.68,7-9.3,7-5.77,0-10-2.59-9.72-8.52Z"/><path class="cls-1" d="M499.7,343.69h15.44v2H502v8.8h11.66v2H502V368H499.7Z"/><path class="cls-1" d="M525.81,343.69h2.59L537.94,368h-2.48l-3-7.57H521.41L518.48,368H516Zm-3.68,14.8h9.58L527,346Z"/><path class="cls-1" d="M563.51,368h-1.67l-.3-4.43h-.07c-1.64,3.48-4.91,4.94-8.42,4.94-7.67,0-11.49-6-11.49-12.68s3.82-12.68,11.49-12.68c5.11,0,9.27,2.76,10.16,8.08h-2.32c-.31-2.79-3.21-6.1-7.84-6.1-6.44,0-9.17,5.38-9.17,10.7s2.73,10.71,9.17,10.71c5.38,0,8.52-3.79,8.42-8.93h-8.29v-2h10.33Z"/><path class="cls-1" d="M577.66,343.69h2.59L589.8,368h-2.49l-3-7.57H573.26L570.33,368h-2.49ZM574,358.49h9.58L578.85,346Z"/><path class="cls-1" d="M594.57,343.69h11.15c4,0,7.4,1.95,7.4,6.34,0,3.07-1.61,5.59-4.74,6.21v.07c3.17.4,4.09,2.59,4.26,5.48.1,1.67.1,5,1.12,6.24h-2.55c-.58-.95-.58-2.76-.65-3.78-.21-3.41-.48-7.19-4.88-7h-8.79V368h-2.32Zm2.32,11.56h8.66c2.83,0,5.25-1.77,5.25-4.74s-1.78-4.84-5.25-4.84h-8.66Z"/></g></g></svg>